<svg width="48" height="24" viewBox="0 0 48 24" fill="none" xmlns="http://www.w3.org/2000/svg">
<path d="M7.25 6.375C7.25 5.28098 7.6846 4.23177 8.45818 3.45818C9.23177 2.6846 10.281 2.25 11.375 2.25C12.469 2.25 13.5182 2.6846 14.2918 3.45818C15.0654 4.23177 15.5 5.28098 15.5 6.375C15.5 7.46902 15.0654 8.51823 14.2918 9.29182C13.5182 10.0654 12.469 10.5 11.375 10.5C10.281 10.5 9.23177 10.0654 8.45818 9.29182C7.6846 8.51823 7.25 7.46902 7.25 6.375ZM4.25 19.125C4.25 17.2353 5.00067 15.4231 6.33686 14.0869C7.67306 12.7507 9.48533 12 11.375 12C13.2647 12 15.0769 12.7507 16.4131 14.0869C17.7493 15.4231 18.5 17.2353 18.5 19.125V19.128L18.499 19.247C18.4969 19.3742 18.4624 19.4987 18.3989 19.6089C18.3354 19.7191 18.245 19.8114 18.136 19.877C16.0952 21.106 13.7573 21.7536 11.375 21.75C8.903 21.75 6.589 21.066 4.615 19.877C4.50585 19.8115 4.41517 19.7193 4.35149 19.6091C4.28781 19.4989 4.25323 19.3743 4.251 19.247L4.25 19.125ZM20.75 7.5C20.75 7.30109 20.671 7.11032 20.5303 6.96967C20.3897 6.82902 20.1989 6.75 20 6.75C19.8011 6.75 19.6103 6.82902 19.4697 6.96967C19.329 7.11032 19.25 7.30109 19.25 7.5V9.75H17C16.8011 9.75 16.6103 9.82902 16.4697 9.96967C16.329 10.1103 16.25 10.3011 16.25 10.5C16.25 10.6989 16.329 10.8897 16.4697 11.0303C16.6103 11.171 16.8011 11.25 17 11.25H19.25V13.5C19.25 13.6989 19.329 13.8897 19.4697 14.0303C19.6103 14.171 19.8011 14.25 20 14.25C20.1989 14.25 20.3897 14.171 20.5303 14.0303C20.671 13.8897 20.75 13.6989 20.75 13.5V11.25H23C23.1989 11.25 23.3897 11.171 23.5303 11.0303C23.671 10.8897 23.75 10.6989 23.75 10.5C23.75 10.3011 23.671 10.1103 23.5303 9.96967C23.3897 9.82902 23.1989 9.75 23 9.75H20.75V7.5Z" fill="#18a59e"/>
<path fill-rule="evenodd" clip-rule="evenodd" d="M25.5 6C25.5 5.40326 25.7371 4.83097 26.159 4.40901C26.581 3.98705 27.1533 3.75 27.75 3.75H44.25C44.8467 3.75 45.419 3.98705 45.841 4.40901C46.2629 4.83097 46.5 5.40326 46.5 6V18C46.5 18.5967 46.2629 19.169 45.841 19.591C45.419 20.0129 44.8467 20.25 44.25 20.25H27.75C27.1533 20.25 26.581 20.0129 26.159 19.591C25.7371 19.169 25.5 18.5967 25.5 18V6ZM27 16.06V18C27 18.414 27.336 18.75 27.75 18.75H44.25C44.4489 18.75 44.6397 18.671 44.7803 18.5303C44.921 18.3897 45 18.1989 45 18V16.06L42.31 13.371C42.0287 13.0901 41.6475 12.9323 41.25 12.9323C40.8525 12.9323 40.4713 13.0901 40.19 13.371L39.31 14.25L40.28 15.22C40.3537 15.2887 40.4128 15.3715 40.4538 15.4635C40.4948 15.5555 40.5168 15.6548 40.5186 15.7555C40.5204 15.8562 40.5018 15.9562 40.4641 16.0496C40.4264 16.143 40.3703 16.2278 40.299 16.299C40.2278 16.3703 40.143 16.4264 40.0496 16.4641C39.9562 16.5018 39.8562 16.5204 39.7555 16.5186C39.6548 16.5168 39.5555 16.4948 39.4635 16.4538C39.3715 16.4128 39.2887 16.3537 39.22 16.28L34.06 11.121C33.7787 10.8401 33.3975 10.6823 33 10.6823C32.6025 10.6823 32.2213 10.8401 31.94 11.121L27 16.061V16.06ZM37.125 8.25C37.125 7.95163 37.2435 7.66548 37.4545 7.4545C37.6655 7.24353 37.9516 7.125 38.25 7.125C38.5484 7.125 38.8345 7.24353 39.0455 7.4545C39.2565 7.66548 39.375 7.95163 39.375 8.25C39.375 8.54837 39.2565 8.83452 39.0455 9.0455C38.8345 9.25647 38.5484 9.375 38.25 9.375C37.9516 9.375 37.6655 9.25647 37.4545 9.0455C37.2435 8.83452 37.125 8.54837 37.125 8.25Z" fill="#18a59e"/>
</svg>
